<svg width="65" height="28" viewBox="0 0 65 28" fill="none" xmlns="http://www.w3.org/2000/svg">
<path d="M54 28.0002H9.28571C6 28.0002 0 23.0002 0 21.0002C0 19.0002 1 19.0002 1 19.0002V17.0002H0V15.1669L4 12.0002H7L9 10.0002H24V8.00024H22V7.00024C22 6.00024 23 1.00024 25 1.00024H28V0.000244141H35.9821V1.00024H43C45 1.00024 46 3.50024 46 3.50024H49L51.0714 6.00024H64V8.00024H51L51.0714 9.00024H46L48 11.0002H52L56 15.0002H62C63 15.0002 65 16.0002 65 17.5002V18.5002H63C63 18.5002 64 19.5002 64 21.0002C64 22.5002 62.4661 23.7106 61 25.0002C58.7669 26.9646 55 28.0002 54 28.0002Z" fill="#90A4AE"/>
</svg>
