<svg width="36" height="46" viewBox="0 0 36 46" fill="none" xmlns="http://www.w3.org/2000/svg">
<path fill-rule="evenodd" clip-rule="evenodd" d="M16 5L15 5.5V13L2 0H0V1L14 15V16H12V14H9V16.5L7 17V20L9 20.5V22H12V21H14V23L2 35V37H3L15 25L16 27C16.5 28 17 41 17 41C17 41 12 41.5 12 42V44C12 44.5 17 45 17 45L17.5 46L18 46L18.5 46L19 45C19 45 24 44.5 24 44V42C24 41.5 19 41 19 41C19 41 19.5 28 20 27L21 25L33 37H34V35L22 23V21H24V22H27V20.5L29 20V17L27 16.5V14H24V16H22V15L36 1V0H34L21 13V5.5L20 5L19 2H18H17L16 5Z" fill="#90A4AE"/>
</svg>
