<svg width="36" height="48" viewBox="0 0 36 48" fill="none" xmlns="http://www.w3.org/2000/svg">
<path fill-rule="evenodd" clip-rule="evenodd" d="M13 6.00024V12.0002L1.5 0L0 1.5L13 15.0002C10 15.0002 10 15.0002 9 16.0002V20.0002C9.34124 20.3415 9.56604 20.5663 9.83333 20.7144C10.3493 21.0002 11.0237 21.0002 13 21.0002V22.0002L0 35.0002L1.5 36.5L13 25.0002C13 26.0002 14 27.0002 15 27.0002L16 42C16 42 13 42.5 12 43.0002C11.5573 43.2217 11.3106 43.345 11.1731 43.5439C11 43.7942 11 44.1642 11 45.0002C11 46.5005 17 47.0002 17 47.0002V48.0002H18V48H19V47C19 47 25 46.5003 25 45C25 44.164 25 43.794 24.8269 43.5437C24.6894 43.3448 24.4427 43.2215 24 43C23 42.4998 20 41.9998 20 41.9998L21 27.0001C22 27.0001 23 26.0001 23 25.0001L34.5 36.4998L36 35.0001L23 22.0001V21.0001C24.9763 21.0001 25.6507 21.0001 26.1667 20.7143C26.434 20.5662 26.6588 20.3414 27 20.0001V16.0002C26 15.0002 26 15.0002 23 15.0002L36 1.49999L34.5 0L23 12.0002V6.00021C23 2.99998 21 0.000244114 18 0.000244141C15 0.000244115 13 3 13 6.00024Z" fill="#94A4B0"/>
</svg>
