<svg width="58" height="50" viewBox="0 0 58 50" fill="none" xmlns="http://www.w3.org/2000/svg">
<path fill-rule="evenodd" clip-rule="evenodd" d="M26 9C26 11 26 13 25 14C24 15 21 15.5 21 15.5V12C21 12 21 10 19 10C17 10 16 12 16 13V17L2 22C2 22 0 22.5 0 24.5C0 26.5 1 27 2 27C3 27 16 26 16 26C16 26 17.5 29 19 29C20.5 29 21 26 21 26H24C25 26 26 27 26 28C26 29 27 41 27 41L21 44C21 44 20 44.5 20 46C20 47.5 20.5 48 21 48H28C28 48 28 50 29 50C30 50 30 48 30 48H37C37.5 48 38 47.5 38 46C38 44.5 37 44 37 44L31 41C31 41 32 29 32 28C32 27 33 26 34 26H37C37 26 37.5 29 39 29C40.5 29 42 26 42 26C42 26 55 27 56 27C57 27 58 26.5 58 24.5C58 22.5 56 22 56 22L42 17V13C42 12 41 10 39 10C37 10 37 12 37 12V15.5C37 15.5 34 15 33 14C32 13 32 11 32 9C32 7 31 0 29 0C27 0 26 7 26 9Z" fill="#94A4B0"/>
</svg>
