<svg id="Britain" xmlns="http://www.w3.org/2000/svg" width="100" height="68" viewBox="0 16 100 68">
<defs>
    <style>
      .cls-1 {
        fill: #001e6c;
      }

      .cls-2 {
        fill: #fff;
      }

      .cls-2, .cls-3 {
        fill-rule: evenodd;
      }

      .cls-3 {
        fill: #c81329;
      }
    </style>
  </defs>
  <g id="country_britain">
    <rect class="cls-1" y="16" width="100" height="68"/>
    <path class="cls-2" d="M100,84H88L49.353,58.392,10.7,84H0V73.044L35.908,49.578,0,26.038V16H12.124L49.384,40.771,86.758,16H100v9.293L62.829,49.585,100,73.953V84Z"/>
    <path class="cls-3" d="M63,60H73l27,17v7H99ZM57,40L92,16h8v2L67,40H57ZM37,40H27L0,23V16H1ZM0,80.323L30,60H40L5,84H0V80.323Z"/>
    <path class="cls-2" d="M100,60H60V84H40V60H0V40H40V16H60V40h40V60Z"/>
    <path class="cls-3" d="M100,56H56V84H44V56H0V44H44V16H56V44h44V56Z"/>
  </g>
</svg>
