<svg width="54" height="48" viewBox="0 0 54 48" fill="none" xmlns="http://www.w3.org/2000/svg">
<path d="M27 0.000101539C28 -0.000122813 27 0.000236031 28 0.000244141C29 0.00025225 30 3.99999 30 7.0001V11.0001C30 12.0001 31 13.0001 32 13.0001H52C52 13.0001 54 13.0002 54 15.0002C54 17.0002 54 19.0002 52 20.0002C50 21.0002 32 23.0002 31 24.0002C30 25.0002 29 40.0002 29 40.0002C29 40.0002 35 40.5003 36 41.0002C37 41.5001 37 43.0002 37 44.0002C37 45.0002 36 45.0002 36 45.0002C36 45.0002 31.5 46.0001 30 46.0001C28.5 46.0001 28 44.0002 28 44.0002V47.0001C28 47.0001 28 48.0001 27.5 48.0001C27 48.0001 27 47.0001 27 47.0001V44.0002C27 44.0002 26.5 46.0001 25 46.0001C23.5 46.0001 19 45.0002 19 45.0002C19 45.0002 18 45.0002 18 44.0002C18 43.0002 18 41.5001 19 41.0002C20 40.5003 26 40.0002 26 40.0002C26 40.0002 25 25.0002 24 24.0002C23 23.0002 4 21.0002 2 20.0002C0 19.0002 0 17.0001 0 15.0001C0 13.0001 2 13.0001 2 13.0001H23C24 13.0001 25 12.0001 25 11.0001V7.0001C25 3.99999 26 0.000325891 27 0.000101539Z" fill="#94A4B0"/>
</svg>
