<svg id="icon-handshake" viewBox="0 0 61 53" xmlns="http://www.w3.org/2000/svg">
<path d="M1 0C0.447715 0 0 0.447715 0 1C0 1.55228 0.447715 2 1 2V0ZM23 8L23.2425 7.02986L23.2194 7.02409L23.1961 7.01942L23 8ZM24.7575 9.47014C25.2933 9.60409 25.8362 9.27833 25.9701 8.74254C26.1041 8.20674 25.7783 7.66381 25.2425 7.52986L24.7575 9.47014ZM13.9345 14.356C14.1311 13.8399 13.8721 13.2621 13.356 13.0655C12.8399 12.8689 12.2621 13.1279 12.0655 13.644L13.9345 14.356ZM6.79289 31.2071C7.18342 31.5976 7.81658 31.5976 8.20711 31.2071C8.59763 30.8166 8.59763 30.1834 8.20711 29.7929L6.79289 31.2071ZM60.5692 1.82219C61.0233 1.50783 61.1366 0.884874 60.8222 0.43079C60.5078 -0.0232942 59.8849 -0.136558 59.4308 0.177808L60.5692 1.82219ZM47 10L46.6838 9.05132L47 10ZM41.5528 18.8944C42.0468 19.1414 42.6474 18.9412 42.8944 18.4472C43.1414 17.9532 42.9412 17.3526 42.4472 17.1056L41.5528 18.8944ZM59.105 20.4461C59.3514 20.9404 59.9518 21.1414 60.4461 20.895C60.9404 20.6486 61.1414 20.0482 60.895 19.5539L59.105 20.4461ZM60.3438 25.939C60.8624 25.7492 61.1289 25.1748 60.939 24.6562C60.7492 24.1376 60.1748 23.8711 59.6562 24.061L60.3438 25.939ZM53.1195 30.5259C52.8577 31.0121 53.0396 31.6186 53.5259 31.8805C54.0121 32.1423 54.6186 31.9604 54.8805 31.4741L53.1195 30.5259ZM33 46L33.8467 46.5321L33.8816 46.4766L33.9089 46.4169L33 46ZM36.5547 46.1679C36.0952 45.8616 35.4743 45.9858 35.1679 46.4453C34.8616 46.9048 34.9858 47.5257 35.4453 47.8321L36.5547 46.1679ZM39 49L38.4453 49.8321L38.5349 49.8918L38.6352 49.9311L39 49ZM41.6247 24.2191C41.1934 23.8741 40.5641 23.944 40.2191 24.3753C39.8741 24.8066 39.944 25.4359 40.3753 25.7809L41.6247 24.2191ZM37.6097 30.2074C37.172 29.8706 36.5441 29.9525 36.2074 30.3903C35.8706 30.828 35.9525 31.4559 36.3903 31.7926L37.6097 30.2074ZM36.6508 38.2407C36.2315 37.8813 35.6002 37.9299 35.2407 38.3492C34.8813 38.7685 34.9299 39.3998 35.3492 39.7593L36.6508 38.2407ZM1 2C0.925591 2 0.870023 1.99 0.841496 1.98381C0.811215 1.97725 0.792144 1.97071 0.786935 1.96887C0.778275 1.96582 0.791369 1.9699 0.831914 1.99072C0.912841 2.03226 1.03701 2.10603 1.20904 2.22012C1.54987 2.44614 2.00395 2.78031 2.54545 3.19803C3.62535 4.0311 4.9879 5.14579 6.36676 6.27396C7.7379 7.39579 9.12535 8.5311 10.2329 9.38553C10.7852 9.81156 11.2842 10.1805 11.6856 10.4467C11.8847 10.5787 12.0789 10.6983 12.2548 10.7886C12.3426 10.8337 12.4426 10.8801 12.5478 10.9172C12.6396 10.9496 12.8036 11 13 11V9C13.0744 9 13.13 9.01 13.1585 9.01619C13.1888 9.02275 13.2079 9.02929 13.2131 9.03113C13.2217 9.03418 13.2086 9.0301 13.1681 9.00928C13.0872 8.96774 12.963 8.89397 12.791 8.77988C12.4501 8.55386 11.996 8.21969 11.4546 7.80197C10.3746 6.9689 9.0121 5.85421 7.63324 4.72604C6.2621 3.60421 4.87465 2.4689 3.76705 1.61447C3.2148 1.18844 2.71575 0.819486 2.31439 0.553321C2.11533 0.421312 1.92114 0.301729 1.74523 0.211433C1.65736 0.166327 1.55742 0.119874 1.4522 0.0827615C1.36035 0.0503654 1.19638 0 1 0V2ZM13 11C13.4768 11 13.9225 10.8271 14.272 10.6651C14.6285 10.4999 15.0346 10.2709 15.4116 10.068C16.2031 9.6418 17.0965 9.20051 18.1961 8.98058L17.8039 7.01942C16.4035 7.29949 15.2969 7.8582 14.4634 8.30703C14.0279 8.54155 13.7153 8.71882 13.4311 8.8505C13.14 8.9854 13.0232 9 13 9V11ZM18.1961 8.98058C19.3294 8.75393 20.484 8.75115 21.371 8.81029C21.8108 8.83961 22.1761 8.88353 22.4289 8.91964C22.5551 8.93767 22.6527 8.95367 22.7169 8.9648C22.749 8.97036 22.7727 8.9747 22.7874 8.97745C22.7948 8.97883 22.7999 8.9798 22.8026 8.98034C22.804 8.98061 22.8048 8.98077 22.805 8.98081C22.8051 8.98083 22.8051 8.98082 22.8049 8.98078C22.8048 8.98077 22.8047 8.98074 22.8045 8.98071C22.8044 8.98069 22.8043 8.98066 22.8042 8.98065C22.8041 8.98062 22.8039 8.98058 23 8C23.1961 7.01942 23.1959 7.01938 23.1957 7.01934C23.1956 7.01932 23.1954 7.01928 23.1953 7.01925C23.1949 7.01919 23.1946 7.01911 23.1942 7.01903C23.1934 7.01888 23.1924 7.01869 23.1913 7.01847C23.1891 7.01803 23.1863 7.01748 23.1829 7.01682C23.176 7.0155 23.1668 7.01373 23.1552 7.01156C23.1321 7.00723 23.0996 7.00132 23.0585 6.99418C22.9762 6.97992 22.859 6.96077 22.7117 6.93974C22.4176 6.89772 22.0017 6.84789 21.504 6.81471C20.516 6.74885 19.1706 6.74607 17.8039 7.01942L18.1961 8.98058ZM22.7575 8.97014L24.7575 9.47014L25.2425 7.52986L23.2425 7.02986L22.7575 8.97014ZM12.0655 13.644C10.1247 18.7387 7.72562 21.4657 5.86941 22.9739C4.93763 23.731 4.12422 24.196 3.53517 24.5052C3.27206 24.6434 2.95866 24.7978 2.77914 24.8978C2.68455 24.9505 2.54947 25.0291 2.429 25.1293C2.36468 25.1828 2 25.4784 2 26H4C4 26.2437 3.90725 26.4211 3.84429 26.5137C3.78367 26.6028 3.72438 26.6533 3.70772 26.6671C3.67709 26.6926 3.67482 26.6882 3.75211 26.6452C3.91634 26.5537 4.10294 26.466 4.46483 26.276C5.12578 25.929 6.06237 25.394 7.13059 24.5261C9.27438 22.7843 11.8753 19.7613 13.9345 14.356L12.0655 13.644ZM2 26C2 26.2285 2.06839 26.4124 2.11567 26.5185C2.16743 26.6347 2.23051 26.7373 2.2873 26.8205C2.40056 26.9865 2.5449 27.156 2.69259 27.3165C2.99109 27.641 3.39625 28.0283 3.83713 28.4379C4.74161 29.2782 5.83372 30.2479 6.79289 31.2071L8.20711 29.7929C7.21366 28.7994 6.05577 27.7692 5.19841 26.9726C4.75837 26.5638 4.40464 26.2235 4.16449 25.9624C4.04285 25.8302 3.97292 25.7425 3.93924 25.6931C3.92257 25.6687 3.929 25.6742 3.9425 25.7044C3.95151 25.7247 4 25.834 4 26H2ZM46.6838 9.05132C46.6957 9.04734 46.6601 9.05966 46.5476 9.06942C46.4429 9.07849 46.3036 9.08281 46.1261 9.08019C45.7704 9.07493 45.3139 9.04283 44.77 8.9892C43.6809 8.88183 42.3288 8.69746 40.8793 8.5084C39.4421 8.32094 37.92 8.13042 36.5333 8.01885C35.1646 7.90872 33.8513 7.86824 32.8586 8.01005L33.1414 9.98995C33.8987 9.88176 35.0229 9.90378 36.3729 10.0124C37.705 10.1196 39.1829 10.3041 40.6207 10.4916C42.0462 10.6775 43.4441 10.8682 44.5738 10.9796C45.1392 11.0353 45.6592 11.0735 46.0965 11.08C46.4971 11.0859 46.9531 11.0697 47.3162 10.9487L46.6838 9.05132ZM32.8586 8.01005C30.9642 8.28068 28.8589 9.07841 27.1287 9.9115C26.2559 10.3317 25.4589 10.7704 24.8088 11.1736C24.1778 11.565 23.6278 11.958 23.2929 12.2929L24.7071 13.7071C24.8722 13.542 25.2597 13.2475 25.863 12.8732C26.4474 12.5108 27.1816 12.1058 27.9963 11.7135C29.6411 10.9216 31.5358 10.2193 33.1414 9.98995L32.8586 8.01005ZM23.2929 12.2929C22.9298 12.656 22.526 13.3066 22.1474 13.9943C21.7483 14.7193 21.3143 15.6042 20.9 16.5284C20.0818 18.3537 19.2925 20.4385 19.0194 21.8039L20.9806 22.1961C21.2075 21.0615 21.9182 19.1463 22.725 17.3466C23.1232 16.4583 23.533 15.6245 23.8994 14.9589C24.2865 14.2559 24.5702 13.844 24.7071 13.7071L23.2929 12.2929ZM19.0194 21.8039C18.3641 25.0805 21.6109 28.1838 25.3162 26.9487L24.6838 25.0513C22.3891 25.8162 20.6359 23.9195 20.9806 22.1961L19.0194 21.8039ZM25.3162 26.9487C26.3273 26.6116 27.1613 25.8503 27.834 25.0347C28.5177 24.2056 29.1153 23.2204 29.6256 22.2956C30.1087 21.4199 30.6121 20.408 30.9427 19.795C31.1265 19.4541 31.2778 19.194 31.4025 19.0124C31.5594 18.7838 31.5754 18.8304 31.4472 18.8944L30.5528 17.1056C30.1746 17.2946 29.9093 17.6537 29.7538 17.8802C29.566 18.1537 29.3735 18.4912 29.1823 18.8456C28.7629 19.6233 28.3913 20.3926 27.8744 21.3294C27.3847 22.2171 26.8573 23.0756 26.291 23.7622C25.7137 24.4622 25.1727 24.8884 24.6838 25.0513L25.3162 26.9487ZM31.4472 18.8944C31.4025 18.9168 31.4908 18.8763 31.8539 18.8268C32.1637 18.7845 32.5744 18.7473 33.0624 18.7168C34.0356 18.656 35.2638 18.625 36.5 18.625C37.7362 18.625 38.9644 18.656 39.9376 18.7168C40.4256 18.7473 40.8363 18.7845 41.1461 18.8268C41.5092 18.8763 41.5975 18.9168 41.5528 18.8944L42.4472 17.1056C42.1525 16.9582 41.7408 16.8893 41.4164 16.8451C41.0387 16.7936 40.5744 16.7527 40.0624 16.7207C39.0356 16.6565 37.7638 16.625 36.5 16.625C35.2362 16.625 33.9644 16.6565 32.9376 16.7207C32.4256 16.7527 31.9613 16.7936 31.5836 16.8451C31.2592 16.8893 30.8475 16.9582 30.5528 17.1056L31.4472 18.8944ZM59.4308 0.177808C56.4583 2.23566 52.9627 4.84171 50.3645 6.68431L51.5215 8.31569C54.2012 6.41529 57.5867 3.88702 60.5692 1.82219L59.4308 0.177808ZM50.3645 6.68431C49.4377 7.34157 48.6218 7.90437 47.9657 8.32604C47.274 8.77061 46.8559 8.99393 46.6838 9.05132L47.3162 10.9487C47.7643 10.7993 48.3875 10.4324 49.047 10.0085C49.7422 9.56179 50.5876 8.97797 51.5215 8.31569L50.3645 6.68431ZM50.2083 8.17839C54.8461 13.2012 56.8245 15.8704 59.105 20.4461L60.895 19.5539C58.5024 14.7534 56.3934 11.9288 51.6777 6.82161L50.2083 8.17839ZM59.6562 24.061C57.9316 24.6924 56.7182 25.4743 55.7081 26.5646C54.726 27.6245 53.9744 28.9384 53.1195 30.5259L54.8805 31.4741C55.7431 29.8723 56.3882 28.7731 57.1751 27.9239C57.9339 27.105 58.8618 26.4816 60.3438 25.939L59.6562 24.061ZM11.4115 39.5039C9.74238 39.6523 9.12707 39.2783 8.88353 39.0104C8.60559 38.7047 8.5 38.2146 8.5 37.5H6.5C6.5 38.2854 6.58583 39.4561 7.4036 40.3557C8.25578 41.2932 9.64047 41.6692 11.5885 41.4961L11.4115 39.5039ZM8.5 37.5C8.5 37.5017 8.49994 37.4924 8.50271 37.4702C8.50542 37.4484 8.51032 37.4183 8.51867 37.3793C8.53559 37.3004 8.56374 37.1984 8.60624 37.0732C8.69151 36.8221 8.82306 36.5111 8.99939 36.1571C9.35184 35.4495 9.8575 34.6214 10.4521 33.8313C11.0491 33.0381 11.7123 32.3146 12.3713 31.7926C13.0488 31.256 13.6167 31.0156 14.0387 30.9993L13.9613 29.0007C12.9208 29.041 11.945 29.5789 11.1295 30.2248C10.2955 30.8854 9.51651 31.7485 8.85412 32.6286C8.18935 33.5119 7.61846 34.4438 7.20919 35.2654C7.00467 35.676 6.83407 36.0719 6.71241 36.4302C6.59734 36.7691 6.5 37.1483 6.5 37.5H8.5ZM14.0387 30.9993C15.4683 30.9439 16.0526 31.1379 16.34 31.3687C16.6117 31.587 16.8411 32.0179 17.0111 33.1487L18.9889 32.8513C18.8107 31.6665 18.5026 30.5408 17.5926 29.8096C16.6983 29.0911 15.4567 28.9428 13.9613 29.0007L14.0387 30.9993ZM18.221 33.9753C20.4968 33.4596 21.6971 33.4824 22.4206 33.8083C23.0635 34.098 23.5578 34.7411 24.0457 36.2989L25.9543 35.7011C25.427 34.0177 24.704 32.6435 23.2421 31.9849C21.8608 31.3625 20.0686 31.5059 17.779 32.0247L18.221 33.9753ZM25.0432 36.9991C27.2904 36.9018 28.3804 37.1448 28.9671 37.5625C29.4893 37.9342 29.8193 38.6019 30.0076 40.1229L31.9924 39.8771C31.7915 38.2543 31.3788 36.8243 30.127 35.9332C28.9397 35.088 27.2244 34.9028 24.9568 35.0009L25.0432 36.9991ZM30.2466 40.6575C31.4451 42.0309 32.0442 42.9246 32.2842 43.6372C32.493 44.257 32.4502 44.8001 32.0911 45.5831L33.9089 46.4169C34.4266 45.2884 34.588 44.2112 34.1796 42.9988C33.8024 41.8792 32.9631 40.7286 31.7534 39.3425L30.2466 40.6575ZM32.1533 45.4679C30.5142 48.0759 28.4333 49.6109 26.7575 50.0299L27.2425 51.9701C29.5667 51.3891 32.0263 49.4286 33.8467 46.5321L32.1533 45.4679ZM26.7575 50.0299C25.8545 50.2556 25.2255 50.1999 24.838 49.9686C24.503 49.7688 24.0866 49.2748 23.9978 47.9339L22.0022 48.0661C22.1147 49.7648 22.6983 51.0208 23.8131 51.6861C24.8751 52.3199 26.1455 52.2444 27.2425 51.9701L26.7575 50.0299ZM22.8382 47.0132C20.5377 47.3904 19.4942 47.2231 18.9675 46.8491C18.4845 46.5061 18.1396 45.765 17.997 43.9228L16.003 44.0772C16.1458 45.9222 16.5096 47.5567 17.8096 48.4798C19.0659 49.3719 20.8797 49.361 23.1618 48.9868L22.8382 47.0132ZM16.7687 43.0271C14.7242 43.5131 14.0225 43.2367 13.6793 42.9319C13.4731 42.7488 13.2816 42.4597 13.0776 41.9809C12.8695 41.4927 12.6921 40.9196 12.4494 40.186L10.5506 40.814C10.7725 41.4848 10.987 42.1768 11.2377 42.765C11.4924 43.3626 11.8263 43.9611 12.3513 44.4273C13.4704 45.4212 15.0542 45.4904 17.2313 44.9729L16.7687 43.0271ZM12.2557 41.1549L18.7557 33.6549L17.2443 32.3451L10.7443 39.8451L12.2557 41.1549ZM17.7071 44.7071L25.7071 36.7071L24.2929 35.2929L16.2929 43.2929L17.7071 44.7071ZM23.7071 48.7071L31.7071 40.7071L30.2929 39.2929L22.2929 47.2929L23.7071 48.7071ZM35.4453 47.8321L38.4453 49.8321L39.5547 48.1679L36.5547 46.1679L35.4453 47.8321ZM38.6352 49.9311C40.0034 50.4672 41.6189 50.5784 42.8103 49.6444C44.0349 48.6843 44.3856 46.9637 43.9829 44.8157L42.0171 45.1843C42.3644 47.0363 41.9311 47.7922 41.5763 48.0704C41.1882 48.3746 40.4287 48.4858 39.3648 48.0689L38.6352 49.9311ZM42.5681 45.9019C45.5294 47.3202 48.0015 47.5299 49.6257 46.3417C51.2761 45.1343 51.5063 42.9022 50.9701 40.7575L49.0299 41.2425C49.4937 43.0978 49.1042 44.2452 48.4449 44.7275C47.7593 45.2291 46.2313 45.4388 43.4319 44.0981L42.5681 45.9019ZM50.086 41.9963C52.6771 41.7725 54.3707 40.6206 54.9555 38.9238C55.5192 37.2881 54.9166 35.5024 53.7071 34.2929L52.2929 35.7071C53.0834 36.4976 53.3275 37.5093 53.0646 38.2722C52.8227 38.9741 52.0163 39.8221 49.914 40.0037L50.086 41.9963ZM53.7071 34.2929C52.6627 33.2485 49.6131 30.7095 46.8832 28.476C45.5059 27.3491 44.1914 26.285 43.2215 25.5028C42.7365 25.1117 42.3375 24.7909 42.0596 24.5679C41.9207 24.4563 41.8121 24.3692 41.7381 24.31C41.7011 24.2803 41.6728 24.2577 41.6537 24.2424C41.6442 24.2347 41.637 24.229 41.6321 24.2251C41.6297 24.2231 41.6278 24.2216 41.6266 24.2206C41.626 24.2202 41.6255 24.2198 41.6252 24.2195C41.625 24.2194 41.6249 24.2193 41.6248 24.2192C41.6247 24.2192 41.6247 24.2191 41 25C40.3753 25.7809 40.3753 25.7809 40.3754 25.7809C40.3755 25.781 40.3756 25.7811 40.3757 25.7812C40.376 25.7814 40.3765 25.7818 40.3771 25.7823C40.3782 25.7832 40.38 25.7846 40.3824 25.7866C40.3872 25.7904 40.3943 25.7961 40.4037 25.8036C40.4226 25.8187 40.4507 25.8412 40.4875 25.8707C40.561 25.9296 40.6691 26.0163 40.8076 26.1275C41.0844 26.3497 41.4823 26.6696 41.966 27.0597C42.9336 27.84 44.2441 28.9009 45.6168 30.024C48.3869 32.2905 51.3373 34.7515 52.2929 35.7071L53.7071 34.2929ZM50.6097 40.2074C48.0713 38.2548 44.8213 35.7548 42.2059 33.7429C40.8982 32.737 39.7492 31.8531 38.927 31.2207C38.516 30.9045 38.1866 30.6512 37.9601 30.4769C37.8468 30.3897 37.7592 30.3224 37.6999 30.2768C37.6703 30.254 37.6478 30.2366 37.6326 30.225C37.625 30.2191 37.6193 30.2148 37.6155 30.2118C37.6136 30.2103 37.6121 30.2092 37.6112 30.2085C37.6108 30.2082 37.6102 30.2078 37.6101 30.2077C37.61 30.2076 37.6099 30.2075 37.6098 30.2074C37.6097 30.2074 37.6097 30.2074 37 31C36.3903 31.7926 36.3903 31.7926 36.3904 31.7927C36.3904 31.7927 36.3905 31.7928 36.3907 31.7929C36.3908 31.793 36.3913 31.7934 36.3917 31.7937C36.3927 31.7945 36.3941 31.7956 36.396 31.7971C36.3999 31.8 36.4056 31.8044 36.4132 31.8102C36.4283 31.8219 36.4509 31.8392 36.4805 31.862C36.5398 31.9076 36.6274 31.975 36.7407 32.0621C36.9672 32.2364 37.2966 32.4897 37.7076 32.8059C38.5297 33.4384 39.6788 34.3222 40.9865 35.3282C43.6019 37.34 46.8519 39.84 49.3903 41.7926L50.6097 40.2074ZM43.6508 44.2407L36.6508 38.2407L35.3492 39.7593L42.3492 45.7593L43.6508 44.2407Z" />
</svg>
