<svg id="icon-question-bubble" viewBox="0 0 60 60" xmlns="http://www.w3.org/2000/svg">
<path fill-rule="evenodd" clip-rule="evenodd" d="M58 30C58 36.8605 55.5327 43.1446 51.437 48.0136L57 57L47.8362 51.585C42.9924 55.5921 36.7774 58 30 58C14.536 58 2 45.464 2 30C2 14.536 14.536 2 30 2C45.464 2 58 14.536 58 30ZM48.0016 54.001C42.9874 57.7679 36.7544 60 30 60C13.4315 60 0 46.5685 0 30C0 13.4315 13.4315 0 30 0C46.5685 0 60 13.4315 60 30C60 36.7544 57.7679 42.9874 54.001 48.0016C54.0883 48.1472 60 58.0074 60 59C60 59.5 60 59.75 59.875 59.875C59.75 60 59.5 60 59 60C58.0074 60 48.1472 54.0883 48.0016 54.001ZM27.875 32.7363C27.5332 33.6797 27.3486 34.9648 27.3213 36.5918H31.1152C31.1152 34.5137 31.6143 32.9209 32.6123 31.8135L34.8477 29.5986C37.0625 27.2744 38.1699 24.916 38.1699 22.5234C38.1699 20.1035 37.4453 18.2031 35.9961 16.8223C34.5605 15.4277 32.5508 14.7305 29.9668 14.7305C27.4785 14.7305 25.4551 15.4141 23.8965 16.7812C22.3516 18.1348 21.5654 19.9189 21.5381 22.1338H25.332C25.332 20.8896 25.7559 19.8984 26.6035 19.1602C27.4512 18.4219 28.5723 18.0527 29.9668 18.0527C31.4023 18.0527 32.4961 18.4629 33.248 19.2832C34 20.0898 34.376 21.2109 34.376 22.6465C34.376 24.1367 33.8018 25.5312 32.6533 26.8301L29.9668 29.5986C28.9141 30.7471 28.2168 31.793 27.875 32.7363ZM27.7109 41.5547C27.3418 41.9648 27.1572 42.4775 27.1572 43.0928C27.1572 43.708 27.3418 44.2207 27.7109 44.6309C28.0938 45.0273 28.6543 45.2256 29.3926 45.2256C30.1309 45.2256 30.6914 45.0273 31.0742 44.6309C31.457 44.2207 31.6484 43.708 31.6484 43.0928C31.6484 42.4775 31.457 41.9648 31.0742 41.5547C30.6914 41.1309 30.1309 40.9189 29.3926 40.9189C28.6543 40.9189 28.0938 41.1309 27.7109 41.5547Z"/>
</svg>
