<svg id="icon-globus" viewBox="0 0 60 60" xmlns="http://www.w3.org/2000/svg">
<path fill-rule="evenodd" clip-rule="evenodd" d="M60 30C60 46.5685 46.5685 60 30 60C13.4315 60 0 46.5685 0 30C0 13.4315 13.4315 0 30 0C46.5685 0 60 13.4315 60 30ZM40.6018 55.9232C37.3317 57.262 33.7521 58 30 58C26.9016 58 23.9208 57.4967 21.1348 56.5675C21.2629 55.8307 21.5127 54.9873 22 54.5C23 53.5 26 51.5 26.5 52C26.6939 52.1939 26.3614 52.5383 25.9399 52.9747C25.2746 53.6635 24.3878 54.5818 25 55.5C25.926 56.889 28.1383 56.1343 29.6517 55.618C29.7726 55.5767 29.889 55.537 30 55.5C30.4599 55.3467 30.8259 55.1464 31.1987 54.9423C32.0417 54.4808 32.9199 54 35 54C37.0654 54 39.3677 55.1849 40.6018 55.9232ZM42.8334 54.8924C41.9892 54.3563 38.1019 52 35 52C33.0126 52 31.0251 52.9673 29.4954 53.7118C28.3312 54.2785 27.4322 54.7161 27 54.5C26.5 54.25 26.875 53.875 27.375 53.375C27.875 52.875 28.5 52.25 28.5 51.5C28.5 50 27 49.5 26 50C25.8 50.1 25.5 50.24 25.14 50.408C23.7 51.08 21.3 52.2 20.5 53C19.9042 53.5958 19.4858 54.9017 19.245 55.86C9.11888 51.6438 2 41.6533 2 30C2 26.2619 2.73253 22.6949 4.06187 19.4346C4.33154 20.3354 5.44994 20.8362 6.76591 21.4256L6.76593 21.4256C7.16517 21.6044 7.58258 21.7913 8 22C8.76393 22.382 9.52786 22.5451 10.1803 22.6844C11.2361 22.9098 12 23.0729 12 24C12 24.6014 11.5981 24.8813 11.1488 25.1942C10.4775 25.6617 9.70048 26.2029 10 28C10.2707 29.6241 10.8345 29.9294 11.4533 30.2644C11.9776 30.5482 12.5414 30.8535 13 32C13.5376 33.3439 14.3641 33.8209 15.169 34.2854C15.8613 34.6849 16.5376 35.0751 17 36C17.5606 37.1212 17.0213 38.3995 16.5272 39.5707C16.1398 40.4887 15.7803 41.3409 16 42C16.309 42.9271 16.618 43.0902 17.0451 43.3156C17.309 43.4549 17.618 43.618 18 44C18.357 44.357 18.7139 45.2873 19.1164 46.3362C19.8414 48.2258 20.7139 50.5 22 50.5C24 50.5 24.5 49 24.5 48C24.5 47.6148 24.3516 47.1555 24.1978 46.6791C23.9522 45.9187 23.6926 45.1148 24 44.5C24.25 44 24.625 43.625 25.125 43.125C25.625 42.625 26.25 42 27 41C27.8193 39.9075 27.8928 39.1134 27.9537 38.4547C28.0043 37.9075 28.0462 37.4538 28.5 37C28.9495 36.5505 29.5 36.6061 30.1061 36.6674C30.8485 36.7423 31.6742 36.8258 32.5 36C33.375 35.125 33.059 34.25 32.7431 33.375C32.5174 32.75 32.2917 32.125 32.5 31.5C32.6861 30.9416 33.0802 30.591 33.5015 30.2162C34.2119 29.5842 35 28.8832 35 27C35 24.8291 33.1672 24.7528 31.5858 24.6869H31.5858C30.9818 24.6618 30.4145 24.6382 30 24.5C29.2375 24.2458 29.121 23.6041 28.9938 22.9031C28.8707 22.2251 28.7375 21.4917 28 21C27.25 20.5 26.75 20.5 26.3125 20.5C25.875 20.5 25.5 20.5 25 20C24.7913 19.7913 24.6261 19.5826 24.4682 19.383C23.8693 18.6261 23.3739 18 21 18C19.6604 18 18.2212 18.3988 16.9493 18.7512C15.3728 19.1879 14.0535 19.5535 13.5 19C12.9142 18.4142 12.8431 17.8284 12.7843 17.3431C12.7426 17 12.7071 16.7071 12.5 16.5C12.25 16.25 11.875 16.25 11.4375 16.25C11 16.25 10.5 16.25 10 16C9 15.5 10 14 11 14C11.5 14 12 14.5 12.5 15C13 15.5 13.5 16 14 16C15 16 16 16 16 14C16 12 19 10 19 10C20.9738 8.02624 23.4245 7.64257 25.4557 7.3246C27.0262 7.07873 28.3459 6.87214 29 6C30.2679 4.3095 27.9635 2.61901 27.2199 2.13628C28.1344 2.04614 29.0618 2 30 2C32.3012 2 34.5376 2.27761 36.6775 2.80116C36.3407 3.79725 35.9892 5.4892 37 6.5C37.835 7.33501 38.5151 7.39531 39.2127 7.45716C39.7683 7.50642 40.335 7.55667 41 8C42.5 9 43 11.5 43 13C43 13.8258 42.2423 14.9546 41.5612 15.9694C41.0051 16.798 40.5 17.5505 40.5 18C40.5 19 44 26 46.5 26C47.8197 26 48.3034 25.7214 48.7602 25.4582C49.1687 25.2229 49.5557 25 50.5 25C52.5 25 52 30.5 51.5 32C51.25 32.75 50.75 33.25 50.25 33.75C49.75 34.25 49.25 34.75 49 35.5C48.6814 36.4558 49.1749 38.0208 49.5749 39.2892C49.8026 40.0113 50 40.6372 50 41C50 41.4495 49.6969 41.6969 49.3633 41.9694C48.9546 42.3031 48.5 42.6742 48.5 43.5C48.5 45 50 45.5 51 45.5C51.5236 45.5 52.5956 45.3629 53.4981 45.2323C50.8512 49.3073 47.173 52.6506 42.8334 54.8924ZM54.7727 43.0626C53.9886 43.2736 51.4226 43.9226 51 43.5C50.7641 43.2641 50.9734 43.1395 51.2603 42.9687C51.5815 42.7774 52 42.5282 52 42C52 41.5 51.75 40.25 51.5 39C51.25 37.75 51 36.5 51 36C51 35.5238 51.2111 35.3243 51.5477 35.0062C51.918 34.6563 52.4401 34.1629 53 33C53.4779 32.0075 54.1984 30.1742 54 28C53.7547 25.3109 52.5 23 50.5 23C49.5 23 48.75 23.375 48.125 23.6875C47.5 24 47 24.25 46.5 24C45.5 23.5 42.5 19 42.5 18C42.5 17.6126 42.8752 17.1501 43.335 16.5835C44.0619 15.6876 45 14.5314 45 13C45 10.5 43.5 7.5 42 6.5C41.25 6 40.875 6 40.5 6C40.125 6 39.75 6 39 5.5C37.9681 4.81207 38.356 3.88752 38.6985 3.37746C49.904 7.03631 58 17.5727 58 30C58 34.7176 56.8333 39.1628 54.7727 43.0626ZM25.4952 2.36047C16.5631 3.80508 9.04669 9.47512 5.0628 17.2537C5.73928 19.5342 9 20 9 20C9 20 14 21.5 14 24C14 25.5314 13.2495 26.3124 12.668 26.9175C12.3002 27.3002 12 27.6126 12 28C12 28.5486 12.3009 28.6458 12.7377 28.7868C13.0972 28.9028 13.5486 29.0486 14 29.5C14.5 30 14.875 30.625 15.25 31.25C15.625 31.875 16 32.5 16.5 33C16.8206 33.3205 17.0897 33.4356 17.3405 33.5428C17.8719 33.7699 18.3206 33.9617 19 36C19.6813 38.0438 18.9702 39.1594 18.4476 39.9791C18.2032 40.3625 18 40.6813 18 41C18 41.7071 18.25 41.9142 18.75 42.3284C18.9571 42.5 19.2071 42.7071 19.5 43C19.9742 43.4742 20.3359 44.6228 20.6918 45.753C21.0866 47.0064 21.4742 48.2371 22 48.5C23 49 23 48 22.5 47.5C22 47 22 45 22.5 43.5C22.7965 42.6104 23.0931 42.4243 23.5982 42.1072C23.9448 41.8896 24.3896 41.6104 25 41C25.75 40.25 25.875 39.25 26 38.25C26.125 37.25 26.25 36.25 27 35.5C27.8258 34.6742 28.6515 34.9092 29.3939 35.1204C30 35.2929 30.5505 35.4495 31 35C31.5414 34.4586 31.35 33.7707 31.14 33.0156C30.962 32.3759 30.7707 31.6879 31 31C31.2404 30.2787 31.7121 29.673 32.137 29.1274C32.5957 28.5383 33 28.0191 33 27.5C33 27.0367 32.5707 27.0027 31.9109 26.9505C31.1467 26.89 30.0734 26.805 29 26C27.6667 25 27.6667 24.2222 27.6667 23.6667C27.6667 23.3889 27.6667 23.1667 27.5 23C27.2764 22.7764 27.1528 22.7528 26.9056 22.7056C26.6 22.6472 26.1056 22.5528 25 22C24.2361 21.618 23.8369 21.2361 23.4959 20.9098C22.9443 20.382 22.5451 20 21 20C19.8535 20 18.2862 20.3155 16.8289 20.6089C15.1086 20.9552 13.5414 21.2707 13 21C12 20.5 11.5 20 11.5 18.5C11.5 17.75 11.375 17.75 11 17.75C10.625 17.75 10 17.75 9 17C7 15.5 8.5 12 11 12C12.4635 12 12.8989 12.8567 13.209 13.4668C13.4286 13.8989 13.5854 14.2073 14 14C14.3423 13.8289 14.4502 13.4234 14.6046 12.8438C14.9012 11.7301 15.3691 9.97319 18 8C20.5139 6.11456 23.0278 5.80907 24.797 5.59408C25.8429 5.46699 26.6285 5.37152 27 5C27.737 4.26301 26.3014 2.98287 25.4952 2.36047Z" />
</svg>
