<svg id="icon-update" viewBox="0 0 60 60" xmlns="http://www.w3.org/2000/svg">
<path fill-rule="evenodd" clip-rule="evenodd" d="M44 7L51 0H53L60 7V9H44V7ZM47 7H57L52 2L47 7ZM54 32C54 46.3594 42.3594 58 28 58C13.6406 58 2 46.3594 2 32C2 18.3135 12.5751 7.09703 26 6.07578V10.0897C14.787 11.1001 6 20.5239 6 32C6 44.1503 15.8497 54 28 54C40.1503 54 50 44.1503 50 32V31V29H47L52 24L57 29H54V31V32ZM56 32C56 47.464 43.464 60 28 60C12.536 60 0 47.464 0 32C0 16.536 12.536 4 28 4V5V6V10V11V12C16.9543 12 8 20.9543 8 32C8 43.0457 16.9543 52 28 52C39.0457 52 48 43.0457 48 32V31H44V29L51 22H53L60 29V31H56V32ZM44 18V20H60V18L53 11H51L44 18ZM52 13L57 18H47L52 13Z" />
</svg>
