<svg id="icon-network" viewBox="0 0 56 60" xmlns="http://www.w3.org/2000/svg">
<path fill-rule="evenodd" clip-rule="evenodd" d="M28 8C30.2092 8 32 6.20911 32 4C32 1.79089 30.2092 0 28 0C25.7908 0 24 1.79089 24 4C24 6.20911 25.7908 8 28 8ZM21 11V15H35V11C35 10 34 9 33 9H23C22 9 21 10 21 11ZM8 49C10.2091 49 12 47.2091 12 45C12 42.7909 10.2091 41 8 41C5.79086 41 4 42.7909 4 45C4 47.2091 5.79086 49 8 49ZM1 52V56H15V52C15 51 14 50 13 50H3C2 50 1 51 1 52ZM52 45C52 47.2091 50.2091 49 48 49C45.7909 49 44 47.2091 44 45C44 42.7909 45.7909 41 48 41C50.2091 41 52 42.7909 52 45ZM41 56V52C41 51 42 50 43 50H53C54 50 55 51 55 52V56H41ZM17 21H19V23H22V21H24V23H27V21H29V23H32V21H34V23H37V21H39V23V25V45V47H37H19H17V45V25V23V21ZM37 45V25H19V45H37ZM24 41L25.6842 35.9474L22 33H26.6667L28 29L29.3333 33H34L30.3158 35.9474L32 41L28 37.8L24 41ZM17.1004 6.2007L17.997 7.99391C8.60277 11.9129 2 21.1854 2 32C2 34.6383 2.39297 37.1849 3.12357 39.5843L1.39085 40.7394C0.488234 37.9895 0 35.0518 0 32C0 20.4023 7.05115 10.4515 17.1004 6.2007ZM17.6501 58.0249L18.7865 56.3203C21.6503 57.4058 24.7557 58 28 58C31.2443 58 34.3497 57.4058 37.2135 56.3203L38.3499 58.0249C35.1483 59.2993 31.656 60 28 60C24.344 60 20.8517 59.2993 17.6501 58.0249ZM54.6091 40.7394L52.8764 39.5843C53.607 37.1849 54 34.6383 54 32C54 20.8679 47.0039 11.3698 37.1686 7.66272L38 5.99999V5.8385C48.5255 9.86419 56 20.0592 56 32C56 35.0518 55.5118 37.9895 54.6091 40.7394Z" />
</svg>
