<svg id="icon-movie" viewBox="0 0 60 60" xmlns="http://www.w3.org/2000/svg">
<path d="M2 50V55C2 56.6569 3.34315 58 5 58H55C56.6569 58 58 56.6569 58 55V50H60V55C60 57.7614 57.7614 60 55 60H5C2.23858 60 0 57.7614 0 55V50H2Z" />
<path fill-rule="evenodd" clip-rule="evenodd" d="M29 17L59 11L57 0L0 11V17H17H29ZM17 17L27 15L22 10L12 12L17 17ZM52 4L42 6L47 11L57 9L52 4ZM37 7L27 9L32 14L42 12L37 7Z" />
<path d="M58 50H60V25H0V50H2V27H58V50Z" />
<path d="M38 41L27 34V37L35 42L27 47V50L38 43V41Z" />
<path d="M25 34H27V50H25V34Z" />
<path d="M2 25H0V17H60V25H52L58 19H51L45 25H37L43 19H36L30 25H22L28 19H21L15 25H7L13 19H5L2 22V25Z" />
</svg>
