<svg id="icon-card-airplane" viewBox="0 0 60 60" xmlns="http://www.w3.org/2000/svg">
<path fill-rule="evenodd" clip-rule="evenodd" d="M54.9 2H16.9C15.5938 2 14.4825 2.83481 14.0707 4H12C12.4633 1.71776 14.481 0 16.9 0H54.9C57.6614 0 59.9 2.23858 59.9 5V43C59.9 45.419 58.1822 47.4367 55.9 47.9V45.8293C57.0652 45.4175 57.9 44.3062 57.9 43V5C57.9 3.34315 56.5568 2 54.9 2ZM11 8H49C50.6569 8 52 9.34315 52 11V49C52 50.3062 51.1652 51.4175 50 51.8293V53.9C52.2823 53.4367 54 51.419 54 49V11C54 8.23858 51.7614 6 49 6H11C8.58106 6 6.56331 7.71776 6.10004 10H8.17072C8.58256 8.83481 9.6938 8 11 8ZM5 14H43C44.6569 14 46 15.3431 46 17V55C46 56.6569 44.6569 58 43 58H5C3.34315 58 2 56.6569 2 55V17C2 15.3431 3.34315 14 5 14ZM0 17C0 14.2386 2.23858 12 5 12H43C45.7614 12 48 14.2386 48 17V55C48 57.7614 45.7614 60 43 60H5C2.23858 60 0 57.7614 0 55V17ZM7.99997 30H22V25C22 25 22 21 24 21C26 21 26 25 26 25V30H40C40 30 42 31.5 41 33C40.4522 33.8217 36.1531 34.3433 32.2949 34.8115C29.1103 35.1979 26.2261 35.5478 26 36C25.5 37 25 46 25 46L30 47C30 47 30.9999 48 30 49C29 50 26 50.5 25 50C24.5 49.75 24.25 49.625 24 49.625C23.75 49.625 23.5 49.75 23 50C22 50.5 19 50 18 49C16.9999 48 18 47 18 47L23 46C23 46 22.5 37 22 36C21.7739 35.5478 18.8897 35.1979 15.7051 34.8115H15.705C11.8469 34.3433 7.54779 33.8217 6.99997 33C5.99997 31.5 7.99997 30 7.99997 30Z" />
</svg>
