<svg id="icon-cross-platform" viewBox="0 0 60 60" xmlns="http://www.w3.org/2000/svg">
<path fill-rule="evenodd" clip-rule="evenodd" d="M5 2H20C21.6569 2 23 3.34315 23 5V18H25V5C25 2.23858 22.7614 0 20 0H5C2.23858 0 0 2.23858 0 5V55C0 57.7614 2.23858 60 5 60H20C22.7614 60 25 57.7614 25 55V42V40C25 38.3431 26.3431 37 28 37H30H47L42 42V45L50 37V35H30H28C25.2386 35 23 37.2386 23 40V42V55C23 56.6569 21.6569 58 20 58H5C3.34315 58 2 56.6569 2 55V5C2 3.34315 3.34315 2 5 2ZM35 42V55C35 57.7614 37.2386 60 40 60H55C57.7614 60 60 57.7614 60 55V5C60 2.23858 57.7614 0 55 0H40C37.2386 0 35 2.23858 35 5V18V20C35 21.6569 33.6569 23 32 23H30H13L18 18V15L10 23V25H30H32C34.7614 25 37 22.7614 37 20V18V5C37 3.34315 38.3431 2 40 2H55C56.6569 2 58 3.34315 58 5V55C58 56.6569 56.6569 58 55 58H40C38.3431 58 37 56.6569 37 55V42H35Z" />
</svg>
