<svg width="78" height="50" viewBox="0 0 78 50" fill="none" xmlns="http://www.w3.org/2000/svg">
<path d="M36 5C36 2.97297 36.9999 0 39 0C41.0001 0 42 2.97297 42 5V10L46.0022 10.5V8.5C46.4943 7.42856 47.3278 7 48.5022 7C49.6766 7 50.4196 7.47543 51.0022 8.5V11C51.0022 11 75.5022 12.5 76.5022 12.5C77.5022 12.5 78.0022 13.5 78.0022 15C78.0022 16.5 78.0022 17.5 76.0022 18C74.0022 18.5 44.0023 23.5 44.0023 23.5C42.0023 24 41.5023 25.5 41.5023 27C41.5023 28.5 41.0023 41 41.0023 41L48.4161 42.2432C49.7609 42.9189 50.0023 43.5 50.0023 45C50.0023 48.5 41.5023 49 41.5023 49C41.5023 49 40.9317 48.0751 40.0023 47.5C39.5023 47.5 40.0023 50 39.0023 50C38.0023 50 38.5023 47.5 38.0023 47.5C37.0729 48.0751 36.0023 49 36.0023 49C36.0023 49 28.0023 48.5 28.0023 45C28.0023 43.5 28.2437 42.9189 29.5885 42.2432L37.0023 41C37.0023 41 36.5023 28.5 36.5023 27C36.5023 25.5 36.0023 24 34.0023 23.5C34.0023 23.5 4.00227 18.5 2.00227 18C0.00227094 17.5 0.043883 16.5 0.00223579 15C-0.0394114 13.5 0.502271 12.5 1.50227 12.5C2.50227 12.5 27.0022 11 27.0022 11V8.5C27.5848 7.47543 28.3278 7 29.5022 7C30.6766 7 31.5101 7.42856 32.0022 8.5V10.5L36 10V5Z" fill="#90A4AE"/>
</svg>
