<svg width="92" height="60" viewBox="0 0 92 60" fill="none" xmlns="http://www.w3.org/2000/svg">
<path fill-rule="evenodd" clip-rule="evenodd" d="M46 0C43 0 42 2 42 7V12C41 13.5 38 13.5 38 13.5C38 13.5 38 11.5 37.5 9.5C37.2065 8.32605 36.3962 8.35799 35.7769 8.3824C35.3412 8.39958 35 8.41302 35 8C35 7 34 7 34 8C34 8.41302 33.6588 8.39958 33.2231 8.3824C32.6038 8.35799 31.7935 8.32605 31.5 9.5C31 11.5 31 14.5 31 14.5L25 15C25 15 25 12.5 24.5 10.5C24.2065 9.32605 23.3962 9.35799 22.7769 9.3824C22.3412 9.39958 22 9.41302 22 9C22 8 21 8 21 9C21 9.41302 20.6588 9.39958 20.2231 9.3824C19.6038 9.35799 18.7935 9.32605 18.5 10.5C18 12.5 18 15 18 15L2 16C2 16 0 16 0 19C0 22 1 22.5 2 23C3 23.5 20.5 26 20.5 26C20.5 27 21 28 21.5 28C22 28 22.5 27 22.5 26L33.5 27C33.5 28 34 29 34.5 29C35 29 35.5 28 35.5 27.5L40 28C41 28 42 29 42 30C42 31 43 48 43 48L34 50C34 50 33 50 33 53C33 56 34 56 34 56C38 57.5 41 58 43 58C43.3767 58 43.5092 57.5547 43.6492 57.0843C43.8058 56.5579 43.9719 56 44.5 56C45 56 45.125 57 45.25 58C45.375 59 45.5 60 46 60C46.5 60 46.625 59 46.75 58C46.875 57 47 56 47.5 56C48.0281 56 48.1942 56.5579 48.3508 57.0843C48.4908 57.5547 48.6233 58 49 58C51 58 54 57.5 58 56C58 56 59 56 59 53C59 50 58 50 58 50L49 48C49 48 50 31 50 30C50 29 51 28 52 28L56.5 27.5C56.5 28 57 29 57.5 29C58 29 58.5 28 58.5 27L69.5 26C69.5 27 70 28 70.5 28C71 28 71.5 27 71.5 26C71.5 26 89 23.5 90 23C91 22.5 92 22 92 19C92 16 90 16 90 16L74 15C74 15 74 12.5 73.5 10.5C73.2065 9.32605 72.3962 9.35799 71.7769 9.3824C71.3412 9.39958 71 9.41302 71 9C71 8 70 8 70 9C70 9.41302 69.6588 9.39958 69.2231 9.3824C68.6038 9.35799 67.7935 9.32605 67.5 10.5C67 12.5 67 15 67 15L61 14.5C61 14.5 61 11.5 60.5 9.5C60.2065 8.32605 59.3962 8.35799 58.7769 8.3824C58.3412 8.39958 58 8.41302 58 8C58 7 57 7 57 8C57 8.41302 56.6588 8.39958 56.2231 8.3824C55.6038 8.35799 54.7935 8.32605 54.5 9.5C54 11.5 54 13.5 54 13.5C54 13.5 51 13.5 50 12V7C50 2 49 0 46 0Z" fill="#94A4B0"/>
</svg>
