<svg width="68" height="38" viewBox="0 0 68 38" fill="none" xmlns="http://www.w3.org/2000/svg">
<path fill-rule="evenodd" clip-rule="evenodd" d="M43.585 11.2645L54.8492 0.000244141L56.2635 1.41446L50.8388 6.83914L52.4246 8.42493L57.8492 3.00024L59.2635 4.41446L47.2202 16.4577L49 19.0002V21.0002H44V23.0002H54L57 26.0002H63L68 31.0002H65C65 31.0002 59 38.0002 54 38.0002H14C11 38.0002 2 32.0002 2 29.0002H0V27.0002L4 23.0002H6V21.0002H13V23.0002H21V21.0002H17V19.0002L21 9.00024H24V7.00024H35V9.00024H42L43.585 11.2645ZM44.7496 12.9283L46.0556 14.7939L51.4246 9.42493L49.8388 7.83914L44.7496 12.9283Z" fill="#90A4AE"/>
</svg>
