<svg width="52" height="24" viewBox="0 0 52 24" fill="none" xmlns="http://www.w3.org/2000/svg">
<path d="M34 0.000244141C35 0.000244141 38 3.00024 38 3.00024H49V5.00024H38V6.00024H35C35 6.00024 35 8.00024 36 8.00024H39L42 11.0002H50L52 13.0002V15.0002H50C50 15.0002 51 15.5002 51 17.0002C51 18.5002 44 24.0002 41 24.0002H9C6 24.0002 0 18.0002 0 16.0002C0 14.0002 2 13.0002 2 13.0002H0V11.0002L3 8.00024H5L6 6.00024H13L14 8.00024H18C19 8.00024 20 5.00024 20 5.00024H18V2.00024C18 2.00024 21 0.000244141 23 0.000244141H34Z" fill="#94A4B0"/>
</svg>
